# xmcd
# 
# Track frame offsets:
#     150
#     18797
#     42575
#     61170
# 
# Disc length: 1129
# 
# Revision: 6
# Processed by: cddbd v1.5.2PL0 Copyright (c) Steve Scherf et al.
# Submitted via: fre:ac v1.0.17
# 
DISCID=29046704
DTITLE=ZARD - 心を開いて
DYEAR=1996
DGENRE=J-Pop
TTITLE0=心を開いて
TTITLE1=Change my mind
TTITLE2=心を開いて（オリジナルカラオケ）
TTITLE3=Change my mind（オリジナルカラオケ）
EXTD=
EXTT0=
EXTT1=
EXTT2=
EXTT3=
PLAYORDER=
